<?xml version="1.0" standalone="no"?>
<!DOCTYPE svg PUBLIC "-//W3C//DTD SVG 20010904//EN"
 "http://www.w3.org/TR/2001/REC-SVG-20010904/DTD/svg10.dtd">
<svg version="1.0" xmlns="http://www.w3.org/2000/svg"
 width="156.000000pt" height="155.000000pt" viewBox="0 0 156.000000 155.000000"
 preserveAspectRatio="xMidYMid meet">

<circle cx="50%"
        cy="50%"
        r="70"
        fill="#ffffff" />
<g transform="translate(0.000000,155.000000) scale(0.100000,-0.100000)"
fill="#000" stroke="none">
<path d="M742 1256 c-83 -94 -181 -267 -212 -373 l-13 -41 -38 13 c-58 21 -94
26 -218 32 l-113 6 7 -54 c9 -71 58 -218 98 -293 40 -77 136 -176 170 -176 34
0 43 29 16 48 -53 37 -91 78 -125 133 -33 56 -83 183 -98 255 -7 31 -6 31 26
28 68 -6 144 -14 158 -17 20 -5 70 -18 93 -24 13 -3 17 -15 17 -47 0 -90 56
-216 141 -317 22 -26 39 -50 39 -54 0 -3 -28 -5 -62 -3 -62 3 -63 3 -66 -24
l-3 -28 90 0 c49 0 102 5 117 10 19 8 30 8 38 0 5 -5 52 -10 104 -10 l93 0 -3
27 c-3 28 -3 28 -70 25 -38 -2 -68 -1 -68 3 0 3 18 27 39 53 83 99 141 229
141 313 0 47 -3 46 115 74 18 5 77 12 163 19 32 3 33 3 26 -28 -15 -72 -65
-199 -98 -255 -34 -56 -72 -96 -126 -134 -19 -13 -21 -19 -10 -32 7 -8 21 -15
32 -15 29 0 129 106 165 176 40 75 89 222 98 293 l7 54 -113 -6 c-125 -6 -160
-11 -221 -33 -23 -8 -42 -13 -43 -12 -1 2 -12 32 -25 68 -42 120 -118 250
-199 342 l-37 41 -32 -37z m77 -118 c54 -73 116 -191 136 -262 17 -57 17 -60
-1 -72 -63 -43 -86 -64 -114 -105 -17 -26 -37 -66 -45 -90 -11 -36 -14 -40
-20 -24 -35 99 -85 166 -157 212 -21 13 -38 25 -38 26 0 17 38 123 57 162 33
65 125 205 135 205 4 0 25 -24 47 -52z m-170 -443 c53 -61 101 -181 101 -254
l0 -25 -30 29 c-71 68 -140 204 -140 277 0 25 2 27 19 19 10 -6 32 -26 50 -46z
m321 22 c0 -66 -72 -208 -135 -267 -24 -22 -25 -22 -25 -4 0 33 29 132 50 175
22 43 87 119 101 119 5 0 9 -11 9 -23z"/>
</g>
</svg>
